<?xml version="1.0" encoding="utf-8"?>
<!-- Generator: Adobe Illustrator 15.1.0, SVG Export Plug-In . SVG Version: 6.00 Build 0)  -->
<!DOCTYPE svg PUBLIC "-//W3C//DTD SVG 1.1//EN" "http://www.w3.org/Graphics/SVG/1.1/DTD/svg11.dtd">
<svg version="1.1" id="Layer_1" xmlns="http://www.w3.org/2000/svg" xmlns:xlink="http://www.w3.org/1999/xlink" x="0px" y="0px"
	 width="102.313px" height="102.313px" viewBox="0 0 102.313 102.313" enable-background="new 0 0 102.313 102.313"
	 xml:space="preserve">
<path fill="#616161" d="M76.739,95.469c-24.434,14.106-55.788,5.705-69.895-18.729S1.139,20.952,25.572,6.845
	C50.006-7.262,81.361,1.14,95.469,25.573C109.575,50.007,101.173,81.362,76.739,95.469z M28.072,11.176
	C6.026,23.904-1.554,52.194,11.175,74.24s41.019,29.627,63.064,16.898s29.627-41.02,16.899-63.065
	C78.41,6.027,50.118-1.553,28.072,11.176z"/>
<path fill="#616161" d="M59.036,47.762c-1.316-2.28-3.529-3.72-5.936-4.136L31.16,16.525l12.502,32.55
	c-0.845,2.293-0.702,4.928,0.614,7.208s3.527,3.721,5.936,4.135L72.15,87.521L59.649,54.969
	C60.493,52.678,60.353,50.042,59.036,47.762z"/>
</svg>
