<?xml version="1.0" encoding="utf-8"?>
<!-- Generator: Adobe Illustrator 15.1.0, SVG Export Plug-In . SVG Version: 6.00 Build 0)  -->
<!DOCTYPE svg PUBLIC "-//W3C//DTD SVG 1.1//EN" "http://www.w3.org/Graphics/SVG/1.1/DTD/svg11.dtd">
<svg version="1.1" id="icons" xmlns="http://www.w3.org/2000/svg" xmlns:xlink="http://www.w3.org/1999/xlink" x="0px" y="0px"
	 width="25.231px" height="25.231px" viewBox="0 0 25.231 25.231" enable-background="new 0 0 25.231 25.231" xml:space="preserve">
<linearGradient id="SVGID_1_" gradientUnits="userSpaceOnUse" x1="0" y1="12.6152" x2="25.231" y2="12.6152">
	<stop  offset="0" style="stop-color:#5E76AB"/>
	<stop  offset="1" style="stop-color:#5E76AB"/>
</linearGradient>
<path fill="url(#SVGID_1_)" d="M25.231,21.983c0,1.794-1.454,3.248-3.248,3.248H3.248C1.454,25.231,0,23.777,0,21.983V3.248
	C0,1.454,1.454,0,3.248,0h18.735c1.794,0,3.248,1.454,3.248,3.248V21.983z"/>
<path fill="#FFFFFF" d="M14.013,7.316h2.635V4.053h-2.635c-2.179,0-3.952,1.92-3.952,4.281v1.646H7.427v3.273h2.635v7.924h3.293
	v-7.924h3.293V9.981h-3.293V8.304C13.354,7.738,13.703,7.316,14.013,7.316z"/>
</svg>
