<?xml version="1.0" encoding="utf-8"?>
<!-- Generator: Adobe Illustrator 15.1.0, SVG Export Plug-In  -->
<!DOCTYPE svg PUBLIC "-//W3C//DTD SVG 1.1//EN" "http://www.w3.org/Graphics/SVG/1.1/DTD/svg11.dtd" [
	<!ENTITY ns_flows "http://ns.adobe.com/Flows/1.0/">
]>
<svg version="1.1"
	 xmlns="http://www.w3.org/2000/svg" xmlns:xlink="http://www.w3.org/1999/xlink" xmlns:a="http://ns.adobe.com/AdobeSVGViewerExtensions/3.0/"
	 x="0px" y="0px" width="123px" height="61px" viewBox="0 0 123 61" enable-background="new 0 0 123 61" xml:space="preserve">
<defs>
</defs>
<path fill="#616262" d="M80,41.165C80,42.73,78.73,44,77.165,44h-31.33C44.27,44,43,42.73,43,41.165v-4.33
	C43,35.27,44.27,34,45.835,34h31.33C78.73,34,80,35.27,80,36.835V41.165z"/>
<path fill="#616262" d="M37,7.165C37,8.73,35.73,10,34.165,10H2.835C1.27,10,0,8.73,0,7.165v-4.33C0,1.27,1.27,0,2.835,0h31.33
	C35.73,0,37,1.27,37,2.835V7.165z"/>
<path fill="#616262" d="M80,7.165C80,8.73,78.73,10,77.165,10h-31.33C44.27,10,43,8.73,43,7.165v-4.33C43,1.27,44.27,0,45.835,0
	h31.33C78.73,0,80,1.27,80,2.835V7.165z"/>
<path fill="#616262" d="M123,7.165C123,8.73,121.73,10,120.165,10h-31.33C87.27,10,86,8.73,86,7.165v-4.33C86,1.27,87.27,0,88.835,0
	h31.33C121.73,0,123,1.27,123,2.835V7.165z"/>
<path fill="#616262" d="M95,58.165C95,59.73,93.73,61,92.165,61h-31.33C59.27,61,58,59.73,58,58.165v-4.33
	C58,52.27,59.27,51,60.835,51h31.33C93.73,51,95,52.27,95,53.835V58.165z"/>
<path fill="#616262" d="M53,58.165C53,59.73,51.73,61,50.165,61h-18.33C30.27,61,29,59.73,29,58.165v-4.33
	C29,52.27,30.27,51,31.835,51h18.33C51.73,51,53,52.27,53,53.835V58.165z"/>
<path fill="#616262" d="M31,24.165C31,25.73,29.73,27,28.165,27H9.835C8.27,27,7,25.73,7,24.165v-4.33C7,18.27,8.27,17,9.835,17
	h18.33C29.73,17,31,18.27,31,19.835V24.165z"/>
<path fill="#616262" d="M74,24.165C74,25.73,72.73,27,71.165,27h-18.33C51.27,27,50,25.73,50,24.165v-4.33
	C50,18.27,51.27,17,52.835,17h18.33C72.73,17,74,18.27,74,19.835V24.165z"/>
<path fill="#616262" d="M117,24.165c0,1.565-1.27,2.835-2.835,2.835h-18.33C94.27,27,93,25.73,93,24.165v-4.33
	C93,18.27,94.27,17,95.835,17h18.33c1.565,0,2.835,1.27,2.835,2.835V24.165z"/>
</svg>
