<?xml version="1.0" encoding="utf-8"?>
<!-- Generator: Adobe Illustrator 15.1.0, SVG Export Plug-In  -->
<!DOCTYPE svg PUBLIC "-//W3C//DTD SVG 1.1//EN" "http://www.w3.org/Graphics/SVG/1.1/DTD/svg11.dtd" [
	<!ENTITY ns_flows "http://ns.adobe.com/Flows/1.0/">
]>
<svg version="1.1"
	 xmlns="http://www.w3.org/2000/svg" xmlns:xlink="http://www.w3.org/1999/xlink" xmlns:a="http://ns.adobe.com/AdobeSVGViewerExtensions/3.0/"
	 x="0px" y="0px" width="1722px" height="212px" viewBox="0 0 1722 212" enable-background="new 0 0 1722 212" xml:space="preserve"
	>
<defs>
</defs>
<g>
	<path fill="none" stroke="#2B2B2B" stroke-miterlimit="10" d="M1720.846,13.63c-154.813,40.94-250.288-17.989-397.251,1.87
		c-121.898,16.472-297.847,28.617-463.111-1.87c-148.19-25.56-364.228,45.743-486.127,29.271
		C227.394,23.042,142.255-21.602,0.12,13.63"/>
	<path fill="none" stroke="#2B2B2B" stroke-miterlimit="10" d="M1720.878,20.119c-150.637,35.792-248.353-14.664-397.167,4.546
		c-126.92,16.051-299.182,23.79-465.055-3.389C708.506-0.944,498.662,65.392,372.935,50.61
		c-144.597-17-234.685-61.309-372.782-30.491"/>
	<path fill="none" stroke="#2B2B2B" stroke-miterlimit="10" d="M1720.91,26.608c-146.461,30.644-246.373-10.987-397.084,7.224
		c-131.902,15.938-300.516,18.964-466.998-4.908c-152.11-18.88-355.718,42.433-485.315,29.396
		C229.33,44.016,134.244,0.204,0.185,26.608"/>
	<path fill="none" stroke="#2B2B2B" stroke-miterlimit="10" d="M1720.943,33.097c-142.285,25.494-244.426-7.531-397.001,9.9
		c-136.912,15.642-301.851,14.137-468.941-6.427c-154.07-15.541-351.404,40.687-484.909,29.457
		C230.359,54.273,130.239,11.107,0.217,33.097"/>
	<path fill="none" stroke="#2B2B2B" stroke-miterlimit="10" d="M1720.976,39.586c-138.108,20.346-242.48-4.102-396.918,12.577
		c-141.924,15.327-303.185,9.31-470.884-7.946C697.144,32.016,506.115,83.094,368.67,73.736
		C231.42,64.391,126.233,22.01,0.25,39.586"/>
	<path fill="none" stroke="#2B2B2B" stroke-miterlimit="10" d="M1721.008,46.076c-133.933,15.197-240.54-0.695-396.834,15.254
		c-146.939,14.994-304.52,4.482-472.827-9.466c-157.991-8.861-342.686,36.995-484.098,29.581
		C232.508,74.38,122.228,32.914,0.282,46.076"/>
	<path fill="none" stroke="#2B2B2B" stroke-miterlimit="10" d="M1721.04,52.565c-129.756,10.049-238.602,2.689-396.75,17.931
		c-151.958,14.645-305.854-0.344-474.771-10.984c-159.95-5.522-338.29,35.036-483.69,29.643
		C233.614,84.25,118.223,43.816,0.314,52.565"/>
	<path fill="none" stroke="#2B2B2B" stroke-miterlimit="10" d="M1721.072,59.053c-125.579,4.901-236.666,6.056-396.667,20.608
		c-156.978,14.277-307.188-5.171-476.714-12.504c-161.91-2.183-333.878,32.995-483.285,29.705
		c-129.671-2.855-250.189-42.144-364.06-37.81"/>
	<path fill="none" stroke="#2B2B2B" stroke-miterlimit="10" d="M1721.105,65.542c-121.404-0.248-234.733,9.403-396.584,23.285
		c-161.999,13.895-308.523-9.998-478.657-14.023c-163.871,1.158-329.454,30.866-482.879,29.767
		C235.869,103.66,110.212,65.623,0.379,65.542"/>
	<path fill="none" stroke="#2B2B2B" stroke-miterlimit="10" d="M1721.138,72.032c-117.228-5.396-232.8,12.735-396.5,25.962
		c-167.022,13.495-309.858-14.824-480.602-15.542c-165.83,4.497-325.021,28.642-482.472,29.828
		C237.006,113.218,106.207,76.526,0.412,72.032"/>
	<path fill="none" stroke="#2B2B2B" stroke-miterlimit="10" d="M1721.17,78.521c-113.051-10.545-230.869,16.052-396.417,28.639
		c-172.046,13.081-311.192-19.651-482.544-17.062c-167.79,7.837-320.584,26.318-482.066,29.891
		c-121.996,2.698-257.941-32.56-359.698-41.468"/>
	<path fill="none" stroke="#2B2B2B" stroke-miterlimit="10" d="M1721.202,85.01c-108.875-15.693-228.938,19.354-396.333,31.315
		c-177.071,12.652-312.526-24.479-484.487-18.581c-169.751,11.177-316.15,23.889-481.661,29.953
		C239.287,132.075,98.195,98.332,0.477,85.01"/>
	<path fill="none" stroke="#2B2B2B" stroke-miterlimit="10" d="M1721.234,91.5c-104.698-20.842-227.008,22.646-396.25,33.992
		c-182.097,12.208-313.86-29.306-486.43-20.1c-171.711,14.516-311.723,21.345-481.255,30.015
		C240.421,141.384,94.19,109.235,0.509,91.5"/>
	<path fill="none" stroke="#2B2B2B" stroke-miterlimit="10" d="M1721.267,97.988c-100.521-25.989-225.078,25.927-396.166,36.67
		c-187.123,11.751-315.195-34.132-488.374-21.619c-173.67,17.855-307.305,18.681-480.848,30.077
		c-114.33,7.508-265.694-22.978-355.337-45.128"/>
	<path fill="none" stroke="#2B2B2B" stroke-miterlimit="10" d="M1721.3,104.477c-96.347-31.139-223.149,29.195-396.083,39.347
		c-192.149,11.279-316.53-38.959-490.317-23.138c-175.631,21.195-302.905,15.888-480.442,30.138
		c-111.792,8.973-268.278-19.782-353.883-46.347"/>
	<path fill="none" stroke="#2B2B2B" stroke-miterlimit="10" d="M1721.332,110.966c-92.17-36.287-221.22,32.455-396,42.023
		c-197.176,10.795-317.864-43.786-492.26-24.657c-177.591,24.535-298.528,12.961-480.037,30.2
		C243.768,168.911,82.174,141.944,0.606,110.966"/>
	<path fill="none" stroke="#2B2B2B" stroke-miterlimit="10" d="M1721.364,117.456c-87.993-41.436-219.29,35.705-395.916,44.7
		c-202.204,10.298-319.199-48.612-494.204-26.177c-179.55,27.875-294.179,9.893-479.629,30.263
		c-106.76,11.727-273.446-13.395-350.976-48.786"/>
	<path fill="none" stroke="#2B2B2B" stroke-miterlimit="10" d="M1721.396,123.945c-83.817-46.584-217.36,38.947-395.832,47.377
		c-207.23,9.788-320.534-53.439-496.147-27.695c-181.511,31.214-289.866,6.67-479.224,30.324
		c-104.271,13.025-276.03-10.2-349.522-50.006"/>
	<path fill="none" stroke="#2B2B2B" stroke-miterlimit="10" d="M1721.429,130.434c-79.641-51.732-215.443,41.867-395.749,50.054
		c-212.272,8.896-321.868-58.267-498.09-29.215c-183.471,34.554-285.595,3.289-478.818,30.387
		c-101.804,14.277-278.614-7.006-348.068-51.226"/>
	<path fill="none" stroke="#2B2B2B" stroke-miterlimit="10" d="M1721.462,136.922c-75.465-56.881-213.509,45.193-395.666,52.731
		c-217.294,8.476-323.203-63.094-500.033-30.734c-185.431,37.895-281.372-0.262-478.412,30.448
		c-99.362,15.486-281.198-3.812-346.615-52.445"/>
	<path fill="none" stroke="#2B2B2B" stroke-miterlimit="10" d="M1721.494,143.412c-71.289-62.029-211.572,48.519-395.583,55.408
		c-222.313,8.055-324.537-67.92-501.977-32.253c-187.391,41.233-277.205-3.989-478.005,30.51
		c-96.947,16.656-283.782-0.617-345.161-53.665"/>
	<path fill="none" stroke="#2B2B2B" stroke-miterlimit="10" d="M1721.526,149.901c-67.112-67.178-209.637,51.844-395.499,58.085
		c-227.335,7.634-325.872-72.747-503.92-33.772c-189.351,44.573-273.104-7.903-477.6,30.572
		c-94.563,17.792-286.366,2.577-343.707-54.885"/>
</g>
</svg>
